<mxfile host="Electron" agent="Mozilla/5.0 (Windows NT 10.0; Win64; x64) AppleWebKit/537.36 (KHTML, like Gecko) draw.io/28.0.6 Chrome/138.0.7204.100 Electron/37.2.3 Safari/537.36" version="28.0.6">
  <diagram name="Page-1" id="G8kG5yd_zdZjhniOPn-1">
    <mxGraphModel dx="1892" dy="626" grid="1" gridSize="10" guides="1" tooltips="1" connect="1" arrows="1" fold="1" page="1" pageScale="1" pageWidth="850" pageHeight="1100" math="0" shadow="0">
      <root>
        <mxCell id="0" />
        <mxCell id="1" parent="0" />
        <mxCell id="DJNPBDVhRz094w91wyb8-1" value="" style="rounded=0;whiteSpace=wrap;html=1;fillColor=none;dashed=1;strokeColor=#FFFFFF;" parent="1" vertex="1">
          <mxGeometry x="-80" y="150" width="160" height="480" as="geometry" />
        </mxCell>
        <mxCell id="DJNPBDVhRz094w91wyb8-2" value="Sources" style="rounded=0;whiteSpace=wrap;html=1;fontSize=24;strokeColor=none;" parent="1" vertex="1">
          <mxGeometry x="-40" y="130" width="80" height="30" as="geometry" />
        </mxCell>
        <mxCell id="DJNPBDVhRz094w91wyb8-3" value="" style="rounded=0;whiteSpace=wrap;html=1;fillColor=none;dashed=1;strokeColor=#FFFFFF;" parent="1" vertex="1">
          <mxGeometry x="140" y="150" width="490" height="490" as="geometry" />
        </mxCell>
        <mxCell id="DJNPBDVhRz094w91wyb8-4" value="Data Warehouse" style="rounded=0;whiteSpace=wrap;html=1;fontSize=24;strokeColor=none;" parent="1" vertex="1">
          <mxGeometry x="310" y="120" width="220" height="30" as="geometry" />
        </mxCell>
        <mxCell id="DJNPBDVhRz094w91wyb8-5" value="" style="rounded=0;whiteSpace=wrap;html=1;fillColor=none;dashed=1;strokeColor=#FFFFFF;" parent="1" vertex="1">
          <mxGeometry x="710" y="150" width="160" height="490" as="geometry" />
        </mxCell>
        <mxCell id="DJNPBDVhRz094w91wyb8-7" value="Consume" style="rounded=0;whiteSpace=wrap;html=1;fontSize=24;strokeColor=none;" parent="1" vertex="1">
          <mxGeometry x="745" y="130" width="90" height="30" as="geometry" />
        </mxCell>
        <mxCell id="DJNPBDVhRz094w91wyb8-8" value="&lt;span style=&quot;font-size: 20px;&quot;&gt;Bronze Layer&lt;/span&gt;" style="rounded=0;whiteSpace=wrap;html=1;fillColor=#fad7ac;strokeColor=#b46504;fillStyle=auto;" parent="1" vertex="1">
          <mxGeometry x="155" y="160" width="130" height="30" as="geometry" />
        </mxCell>
        <mxCell id="DJNPBDVhRz094w91wyb8-9" value="&lt;span style=&quot;font-size: 20px;&quot;&gt;Gold Layer&lt;/span&gt;" style="rounded=0;whiteSpace=wrap;html=1;fillColor=light-dark(#fa6800, #e39b68);fontColor=#000000;strokeColor=#C73500;" parent="1" vertex="1">
          <mxGeometry x="490" y="160" width="115" height="30" as="geometry" />
        </mxCell>
        <mxCell id="DJNPBDVhRz094w91wyb8-10" value="&lt;span style=&quot;font-size: 20px;&quot;&gt;Silver Layer&lt;/span&gt;" style="rounded=0;whiteSpace=wrap;html=1;fillColor=#d0cee2;strokeColor=#56517e;" parent="1" vertex="1">
          <mxGeometry x="330" y="160" width="120" height="30" as="geometry" />
        </mxCell>
        <mxCell id="DJNPBDVhRz094w91wyb8-11" value="" style="rounded=0;whiteSpace=wrap;html=1;fillColor=none;" parent="1" vertex="1">
          <mxGeometry x="160" y="210" width="120" height="520" as="geometry" />
        </mxCell>
        <mxCell id="DJNPBDVhRz094w91wyb8-12" value="" style="rounded=0;whiteSpace=wrap;html=1;fillColor=none;" parent="1" vertex="1">
          <mxGeometry x="325" y="210" width="120" height="520" as="geometry" />
        </mxCell>
        <mxCell id="DJNPBDVhRz094w91wyb8-13" value="" style="rounded=0;whiteSpace=wrap;html=1;fillColor=none;" parent="1" vertex="1">
          <mxGeometry x="485" y="210" width="120" height="520" as="geometry" />
        </mxCell>
        <mxCell id="DJNPBDVhRz094w91wyb8-15" value="CRM" style="image;aspect=fixed;html=1;points=[];align=center;fontSize=12;image=img/lib/azure2/general/Folder_Blank.svg;" parent="1" vertex="1">
          <mxGeometry x="-49" y="240" width="49.29" height="40" as="geometry" />
        </mxCell>
        <mxCell id="DJNPBDVhRz094w91wyb8-16" value="" style="image;aspect=fixed;html=1;points=[];align=center;fontSize=12;image=img/lib/azure2/general/File.svg;" parent="1" vertex="1">
          <mxGeometry x="-13" y="260" width="26" height="32.04" as="geometry" />
        </mxCell>
        <mxCell id="DJNPBDVhRz094w91wyb8-17" value="ERP" style="image;aspect=fixed;html=1;points=[];align=center;fontSize=12;image=img/lib/azure2/general/Folder_Blank.svg;" parent="1" vertex="1">
          <mxGeometry x="-49" y="350" width="49.29" height="40" as="geometry" />
        </mxCell>
        <mxCell id="DJNPBDVhRz094w91wyb8-18" value="" style="image;aspect=fixed;html=1;points=[];align=center;fontSize=12;image=img/lib/azure2/general/File.svg;" parent="1" vertex="1">
          <mxGeometry x="-13" y="360" width="26" height="32.04" as="geometry" />
        </mxCell>
        <mxCell id="DJNPBDVhRz094w91wyb8-21" value="" style="endArrow=none;html=1;rounded=0;" parent="1" edge="1">
          <mxGeometry width="50" height="50" relative="1" as="geometry">
            <mxPoint x="-60" y="420" as="sourcePoint" />
            <mxPoint x="50" y="420" as="targetPoint" />
          </mxGeometry>
        </mxCell>
        <mxCell id="DJNPBDVhRz094w91wyb8-23" value="Object Type: CSV Files&lt;div&gt;&lt;br&gt;&lt;/div&gt;&lt;div&gt;Interface: Files in Folder&lt;/div&gt;" style="text;html=1;align=center;verticalAlign=middle;whiteSpace=wrap;rounded=0;" parent="1" vertex="1">
          <mxGeometry x="-80" y="430" width="150" height="70" as="geometry" />
        </mxCell>
        <mxCell id="DJNPBDVhRz094w91wyb8-24" value="" style="html=1;verticalLabelPosition=bottom;align=center;labelBackgroundColor=#ffffff;verticalAlign=top;strokeWidth=2;strokeColor=light-dark(#0080F0, #f2d8b2);shadow=0;dashed=0;shape=mxgraph.ios7.icons.data;" parent="1" vertex="1">
          <mxGeometry x="190" y="260" width="60" height="68" as="geometry" />
        </mxCell>
        <mxCell id="DJNPBDVhRz094w91wyb8-25" value="" style="html=1;verticalLabelPosition=bottom;align=center;labelBackgroundColor=#ffffff;verticalAlign=top;strokeWidth=2;strokeColor=light-dark(#56517E,#56517E);shadow=0;dashed=0;shape=mxgraph.ios7.icons.data;" parent="1" vertex="1">
          <mxGeometry x="355" y="260" width="60" height="68" as="geometry" />
        </mxCell>
        <mxCell id="DJNPBDVhRz094w91wyb8-26" value="" style="html=1;verticalLabelPosition=bottom;align=center;labelBackgroundColor=#ffffff;verticalAlign=top;strokeWidth=2;strokeColor=light-dark(#C73500,#F2D8B2);shadow=0;dashed=0;shape=mxgraph.ios7.icons.data;" parent="1" vertex="1">
          <mxGeometry x="515" y="260" width="60" height="68" as="geometry" />
        </mxCell>
        <mxCell id="DJNPBDVhRz094w91wyb8-27" value="" style="shape=flexArrow;endArrow=classic;html=1;rounded=0;entryX=0.021;entryY=0.448;entryDx=0;entryDy=0;entryPerimeter=0;fillColor=#b0e3e6;strokeColor=#0e8088;" parent="1" edge="1">
          <mxGeometry width="50" height="50" relative="1" as="geometry">
            <mxPoint x="60" y="300.23" as="sourcePoint" />
            <mxPoint x="169.99999999999997" y="300.0000000000001" as="targetPoint" />
          </mxGeometry>
        </mxCell>
        <mxCell id="DJNPBDVhRz094w91wyb8-29" value="" style="shape=flexArrow;endArrow=classic;html=1;rounded=0;fillColor=#b0e3e6;strokeColor=#0e8088;" parent="1" edge="1">
          <mxGeometry width="50" height="50" relative="1" as="geometry">
            <mxPoint x="270" y="300" as="sourcePoint" />
            <mxPoint x="340" y="300" as="targetPoint" />
          </mxGeometry>
        </mxCell>
        <mxCell id="DJNPBDVhRz094w91wyb8-30" value="" style="shape=flexArrow;endArrow=classic;html=1;rounded=0;fillColor=#b0e3e6;strokeColor=#0e8088;" parent="1" edge="1">
          <mxGeometry width="50" height="50" relative="1" as="geometry">
            <mxPoint x="440" y="293.47" as="sourcePoint" />
            <mxPoint x="500" y="293.47" as="targetPoint" />
          </mxGeometry>
        </mxCell>
        <mxCell id="DJNPBDVhRz094w91wyb8-31" value="" style="shape=flexArrow;endArrow=classic;html=1;rounded=0;entryX=0.021;entryY=0.448;entryDx=0;entryDy=0;entryPerimeter=0;fillColor=#b0e3e6;strokeColor=#0e8088;" parent="1" edge="1">
          <mxGeometry width="50" height="50" relative="1" as="geometry">
            <mxPoint x="610" y="300.2299999999999" as="sourcePoint" />
            <mxPoint x="720" y="300" as="targetPoint" />
          </mxGeometry>
        </mxCell>
        <mxCell id="DJNPBDVhRz094w91wyb8-32" value="Row Data" style="text;html=1;align=center;verticalAlign=middle;whiteSpace=wrap;rounded=0;fontSize=17;" parent="1" vertex="1">
          <mxGeometry x="180" y="345" width="90" height="30" as="geometry" />
        </mxCell>
        <mxCell id="DJNPBDVhRz094w91wyb8-33" value="&lt;font style=&quot;font-size: 17px;&quot;&gt;Cleaned, Standardized Data&lt;/font&gt;" style="text;html=1;align=center;verticalAlign=middle;whiteSpace=wrap;rounded=0;" parent="1" vertex="1">
          <mxGeometry x="337.5" y="345" width="95" height="45" as="geometry" />
        </mxCell>
        <mxCell id="DJNPBDVhRz094w91wyb8-34" value="&lt;font style=&quot;font-size: 17px;&quot;&gt;Business-Ready Data&lt;/font&gt;" style="text;html=1;align=center;verticalAlign=middle;whiteSpace=wrap;rounded=0;" parent="1" vertex="1">
          <mxGeometry x="497.5" y="347.04" width="95" height="45" as="geometry" />
        </mxCell>
        <mxCell id="DJNPBDVhRz094w91wyb8-35" value="" style="endArrow=none;html=1;rounded=0;" parent="1" edge="1">
          <mxGeometry width="50" height="50" relative="1" as="geometry">
            <mxPoint x="165" y="410" as="sourcePoint" />
            <mxPoint x="275" y="410" as="targetPoint" />
          </mxGeometry>
        </mxCell>
        <mxCell id="DJNPBDVhRz094w91wyb8-36" value="" style="endArrow=none;html=1;rounded=0;" parent="1" edge="1">
          <mxGeometry width="50" height="50" relative="1" as="geometry">
            <mxPoint x="330" y="410" as="sourcePoint" />
            <mxPoint x="440" y="410" as="targetPoint" />
          </mxGeometry>
        </mxCell>
        <mxCell id="DJNPBDVhRz094w91wyb8-37" value="" style="endArrow=none;html=1;rounded=0;" parent="1" edge="1">
          <mxGeometry width="50" height="50" relative="1" as="geometry">
            <mxPoint x="490" y="410" as="sourcePoint" />
            <mxPoint x="600" y="410" as="targetPoint" />
          </mxGeometry>
        </mxCell>
        <mxCell id="DJNPBDVhRz094w91wyb8-38" value="&lt;div style=&quot;&quot;&gt;&lt;span style=&quot;background-color: transparent; color: light-dark(rgb(0, 0, 0), rgb(255, 255, 255));&quot;&gt;Object Type: Table&lt;/span&gt;&lt;/div&gt;&lt;div style=&quot;&quot;&gt;Load:&lt;/div&gt;&lt;div style=&quot;&quot;&gt;-Batch Processing&lt;/div&gt;&lt;div style=&quot;&quot;&gt;-Full Load(Trunc &amp;amp; Insert&lt;span style=&quot;background-color: transparent; color: light-dark(rgb(0, 0, 0), rgb(255, 255, 255));&quot;&gt;)&lt;/span&gt;&lt;/div&gt;&lt;div style=&quot;&quot;&gt;&lt;span style=&quot;background-color: transparent; color: light-dark(rgb(0, 0, 0), rgb(255, 255, 255));&quot;&gt;&lt;br&gt;&lt;/span&gt;&lt;/div&gt;&lt;div style=&quot;&quot;&gt;&lt;span style=&quot;background-color: transparent; color: light-dark(rgb(0, 0, 0), rgb(255, 255, 255));&quot;&gt;No Transformations&lt;/span&gt;&lt;/div&gt;&lt;div style=&quot;&quot;&gt;&lt;span style=&quot;background-color: transparent; color: light-dark(rgb(0, 0, 0), rgb(255, 255, 255));&quot;&gt;&lt;br&gt;&lt;/span&gt;&lt;/div&gt;&lt;div style=&quot;&quot;&gt;&lt;span style=&quot;background-color: transparent; color: light-dark(rgb(0, 0, 0), rgb(255, 255, 255));&quot;&gt;Data Model: None (As-is)&lt;/span&gt;&lt;/div&gt;&lt;div style=&quot;&quot;&gt;&lt;br&gt;&lt;/div&gt;" style="text;html=1;align=left;verticalAlign=middle;whiteSpace=wrap;rounded=0;" parent="1" vertex="1">
          <mxGeometry x="170" y="420" width="100" height="250" as="geometry" />
        </mxCell>
        <mxCell id="DJNPBDVhRz094w91wyb8-40" value="Object Type: Tables&lt;br&gt;&lt;div&gt;&lt;br&gt;&lt;/div&gt;&lt;div&gt;Load:&lt;/div&gt;&lt;div&gt;-Batch Processing&lt;/div&gt;&lt;div&gt;-Full Load&lt;/div&gt;&lt;div&gt;-Truncate &amp;amp; Insert&lt;/div&gt;&lt;div&gt;&lt;br&gt;&lt;/div&gt;&lt;div&gt;Transformations:&lt;/div&gt;&lt;div&gt;-Data Cleansing&lt;/div&gt;&lt;div&gt;-Data Stardrization&lt;/div&gt;&lt;div&gt;-Derived Columns&lt;/div&gt;&lt;div&gt;-Data Enrichment&lt;/div&gt;&lt;div&gt;&lt;br&gt;&lt;/div&gt;&lt;div&gt;Data Model: None (As-is)&lt;/div&gt;" style="text;html=1;align=center;verticalAlign=middle;whiteSpace=wrap;rounded=0;" parent="1" vertex="1">
          <mxGeometry x="337.5" y="470" width="95" height="200" as="geometry" />
        </mxCell>
        <mxCell id="DJNPBDVhRz094w91wyb8-41" value="Object Type: Views&lt;div&gt;&lt;br&gt;&lt;/div&gt;&lt;div&gt;No Load&lt;/div&gt;&lt;div&gt;&lt;br&gt;&lt;/div&gt;&lt;div&gt;Transformations:&lt;/div&gt;&lt;div&gt;-Data Integration&lt;/div&gt;&lt;div&gt;-Aggregations&lt;/div&gt;&lt;div&gt;-Businees Logics&lt;/div&gt;&lt;div&gt;&lt;br&gt;&lt;/div&gt;&lt;div&gt;Data Model:&lt;/div&gt;&lt;div&gt;-Star Schema&lt;/div&gt;&lt;div&gt;-Flat Table&lt;/div&gt;&lt;div&gt;-Aggregated Table&lt;/div&gt;" style="text;html=1;align=center;verticalAlign=middle;whiteSpace=wrap;rounded=0;" parent="1" vertex="1">
          <mxGeometry x="497.5" y="430" width="95" height="210" as="geometry" />
        </mxCell>
        <mxCell id="DJNPBDVhRz094w91wyb8-45" value="" style="image;aspect=fixed;html=1;points=[];align=center;fontSize=12;image=img/lib/azure2/analytics/Power_BI_Embedded.svg;" parent="1" vertex="1">
          <mxGeometry x="730" y="213" width="51" height="68" as="geometry" />
        </mxCell>
        <mxCell id="DJNPBDVhRz094w91wyb8-46" value="&lt;font style=&quot;font-size: 18px;&quot;&gt;tableau&lt;/font&gt;" style="text;html=1;align=center;verticalAlign=middle;whiteSpace=wrap;rounded=0;" parent="1" vertex="1">
          <mxGeometry x="790" y="240" width="60" height="30" as="geometry" />
        </mxCell>
        <mxCell id="DJNPBDVhRz094w91wyb8-47" value="" style="html=1;verticalLabelPosition=bottom;align=center;labelBackgroundColor=#ffffff;verticalAlign=top;strokeWidth=2;strokeColor=#0080F0;shadow=0;dashed=0;shape=mxgraph.ios7.icons.looking_glass;" parent="1" vertex="1">
          <mxGeometry x="762.5" y="340.04" width="55" height="52" as="geometry" />
        </mxCell>
        <mxCell id="DJNPBDVhRz094w91wyb8-48" value="&lt;font style=&quot;font-size: 15px;&quot;&gt;Ad-Hoc&lt;/font&gt;&lt;div&gt;&lt;font style=&quot;font-size: 15px;&quot;&gt;SQL Queries&lt;/font&gt;&lt;/div&gt;" style="text;html=1;align=center;verticalAlign=middle;whiteSpace=wrap;rounded=0;" parent="1" vertex="1">
          <mxGeometry x="740" y="410" width="100" height="40" as="geometry" />
        </mxCell>
        <mxCell id="DJNPBDVhRz094w91wyb8-49" value="Machine Learning" style="sketch=0;outlineConnect=0;fontColor=#232F3E;gradientColor=none;strokeColor=#ffffff;fillColor=#232F3E;dashed=0;verticalLabelPosition=middle;verticalAlign=bottom;align=center;html=1;whiteSpace=wrap;fontSize=10;fontStyle=1;spacing=3;shape=mxgraph.aws4.productIcon;prIcon=mxgraph.aws4.deep_learning_amis;" parent="1" vertex="1">
          <mxGeometry x="755" y="495" width="80" height="110" as="geometry" />
        </mxCell>
        <mxCell id="DJNPBDVhRz094w91wyb8-50" value="&lt;font style=&quot;font-size: 15px;&quot;&gt;BI &amp;amp; Reporting&lt;/font&gt;" style="text;html=1;align=center;verticalAlign=middle;whiteSpace=wrap;rounded=0;" parent="1" vertex="1">
          <mxGeometry x="740" y="292.04" width="100" height="30" as="geometry" />
        </mxCell>
        <mxCell id="DJNPBDVhRz094w91wyb8-51" value="" style="sketch=0;pointerEvents=1;shadow=0;dashed=0;html=1;strokeColor=none;fillColor=#005F4B;labelPosition=center;verticalLabelPosition=bottom;verticalAlign=top;align=center;outlineConnect=0;shape=mxgraph.veeam2.sql_server;rotation=-90;" parent="1" vertex="1">
          <mxGeometry x="180" y="40" width="40" height="120" as="geometry" />
        </mxCell>
        <mxCell id="DJNPBDVhRz094w91wyb8-52" value="SQL Server" style="text;html=1;align=center;verticalAlign=middle;whiteSpace=wrap;rounded=0;" parent="1" vertex="1">
          <mxGeometry x="140" y="120" width="80" height="30" as="geometry" />
        </mxCell>
      </root>
    </mxGraphModel>
  </diagram>
</mxfile>
